<?xml version="1.0" encoding="UTF-8" standalone="no"?>
<!-- Created with Inkscape (http://www.inkscape.org/) -->

<svg
   xmlns:dc="http://purl.org/dc/elements/1.1/"
   xmlns:cc="http://creativecommons.org/ns#"
   xmlns:rdf="http://www.w3.org/1999/02/22-rdf-syntax-ns#"
   xmlns:svg="http://www.w3.org/2000/svg"
   xmlns="http://www.w3.org/2000/svg"
   xmlns:sodipodi="http://sodipodi.sourceforge.net/DTD/sodipodi-0.dtd"
   xmlns:inkscape="http://www.inkscape.org/namespaces/inkscape"
   version="1.1"
   id="svg4518"
   width="500"
   height="500"
   viewBox="0 0 500 500"
   sodipodi:docname="Logo.svg"
   inkscape:version="0.92.4 (5da689c313, 2019-01-14)">
  <metadata
     id="metadata4524">
    <rdf:RDF>
      <cc:Work
         rdf:about="">
        <dc:format>image/svg+xml</dc:format>
        <dc:type
           rdf:resource="http://purl.org/dc/dcmitype/StillImage" />
        <dc:title></dc:title>
      </cc:Work>
    </rdf:RDF>
  </metadata>
  <defs
     id="defs4522" />
  <sodipodi:namedview
     pagecolor="#ffffff"
     bordercolor="#666666"
     borderopacity="1"
     objecttolerance="10"
     gridtolerance="10"
     guidetolerance="10"
     inkscape:pageopacity="0"
     inkscape:pageshadow="2"
     inkscape:window-width="1504"
     inkscape:window-height="837"
     id="namedview4520"
     showgrid="true"
     showguides="false"
     inkscape:pagecheckerboard="true"
     inkscape:zoom="0.836"
     inkscape:cx="243.06822"
     inkscape:cy="276.3897"
     inkscape:window-x="290"
     inkscape:window-y="99"
     inkscape:window-maximized="0"
     inkscape:current-layer="g4751">
    <inkscape:grid
       type="xygrid"
       id="grid4564" />
  </sodipodi:namedview>
  <path
     style="fill:#f9c000;fill-opacity:1;stroke:#ffffff;stroke-width:10.96062946;stroke-linecap:butt;stroke-linejoin:miter;stroke-miterlimit:4;stroke-dasharray:none;stroke-opacity:1"
     d="M 250,229.29403 60.855263,332.52489 250,435 438.99522,332.37537 Z"
     id="path4530-2-3-5"
     inkscape:connector-curvature="0"
     sodipodi:nodetypes="ccccc"
     inkscape:label="path4530-2-3-5" />
  <path
     style="fill:#a92327;fill-opacity:1;stroke:#ffffff;stroke-width:10.96062946;stroke-linecap:butt;stroke-linejoin:miter;stroke-miterlimit:4;stroke-dasharray:none;stroke-opacity:1"
     d="M 250,174.29403 60.855263,277.52489 250,380 438.99522,277.37537 Z"
     id="path4530-2-3"
     inkscape:connector-curvature="0"
     sodipodi:nodetypes="ccccc" />
  <path
     style="fill:#1d5492;fill-opacity:1;stroke:#ffffff;stroke-width:10.96062946;stroke-linecap:butt;stroke-linejoin:miter;stroke-miterlimit:4;stroke-dasharray:none;stroke-opacity:1"
     d="M 250,114.29403 60.855263,217.52489 250,320 438.99522,217.37537 Z"
     id="path4530-2"
     inkscape:connector-curvature="0"
     sodipodi:nodetypes="ccccc" />
  <path
     style="fill:#0d9444;fill-opacity:1;stroke:#ffffff;stroke-width:10.96062992;stroke-linecap:butt;stroke-linejoin:miter;stroke-miterlimit:4;stroke-dasharray:none;stroke-opacity:1"
     d="M 250,59 60.855263,162.23086 250,264.70597 438.99522,162.08134 Z"
     id="path4530"
     inkscape:connector-curvature="0"
     sodipodi:nodetypes="ccccc" />
  <g
     id="g4751"
     transform="matrix(0.0570744,-0.023642,0.0408084,0.03306557,209.38212,146.40809)"
     style="fill:#ffffff;fill-opacity:1">
    <g
       id="g4694"
       style="fill:#ffffff;fill-opacity:1"
       transform="matrix(1.1256158,-0.22943987,0.12400138,0.96933335,-345.41092,268.91612)">
	<path
   id="path4690"
   d="M 924,828.75 V 315.649 c -3.6,0.3 -7.199,0.5 -10.801,0.5 H 60 c -3.6,0 -7.3,-0.2 -10.8,-0.5 V 828.75 c 0,33.1 26.9,60 60,60 H 864 c 33.1,0 60,-26.801 60,-60 z M 687,513.35 c 0,16.6 -13.4,30 -30,30 H 316.2 c -16.6,0 -30,-13.4 -30,-30 v -79.6 c 0,-16.601 13.4,-30 30,-30 h 340.7 c 16.6,0 30,13.399 30,30 v 79.6 z"
   inkscape:connector-curvature="0"
   style="fill:#ffffff;fill-opacity:1" />

	<path
   id="path4692"
   d="m 973.199,196.149 v -51.7 c 0,-33.1 -26.898,-60 -60,-60 H 60 c -33.1,0 -60,26.9 -60,60 v 51.7 c 0,29.4 21.2,53.9 49.2,59 3.5,0.6 7.1,1 10.8,1 h 853.1 c 3.701,0 7.301,-0.4 10.801,-1 28.099,-5.1 49.298,-29.6 49.298,-59 z"
   inkscape:connector-curvature="0"
   style="fill:#ffffff;fill-opacity:1" />

</g>
    <g
       id="g4696"
       style="fill:#ffffff;fill-opacity:1">
</g>
    <g
       id="g4698"
       style="fill:#ffffff;fill-opacity:1">
</g>
    <g
       id="g4700"
       style="fill:#ffffff;fill-opacity:1">
</g>
    <g
       id="g4702"
       style="fill:#ffffff;fill-opacity:1">
</g>
    <g
       id="g4704"
       style="fill:#ffffff;fill-opacity:1">
</g>
    <g
       id="g4706"
       style="fill:#ffffff;fill-opacity:1">
</g>
    <g
       id="g4708"
       style="fill:#ffffff;fill-opacity:1">
</g>
    <g
       id="g4710"
       style="fill:#ffffff;fill-opacity:1">
</g>
    <g
       id="g4712"
       style="fill:#ffffff;fill-opacity:1">
</g>
    <g
       id="g4714"
       style="fill:#ffffff;fill-opacity:1">
</g>
    <g
       id="g4716"
       style="fill:#ffffff;fill-opacity:1">
</g>
    <g
       id="g4718"
       style="fill:#ffffff;fill-opacity:1">
</g>
    <g
       id="g4720"
       style="fill:#ffffff;fill-opacity:1">
</g>
    <g
       id="g4722"
       style="fill:#ffffff;fill-opacity:1">
</g>
    <g
       id="g4724"
       style="fill:#ffffff;fill-opacity:1">
</g>
    <ellipse
       style="fill:none;fill-opacity:1;stroke:#ffffff;stroke-width:164.92724609;stroke-miterlimit:4;stroke-dasharray:none;stroke-opacity:1"
       id="path4753"
       cx="573.34399"
       cy="373.29535"
       transform="rotate(35.564903)"
       rx="919.81311"
       ry="878.5528" />
  </g>
</svg>
